<svg width="1394" height="588" viewBox="0 0 1394 588" fill="none" xmlns="http://www.w3.org/2000/svg">
<path d="M108.588 0C109.555 0.917999 110.4 2.45203 111.427 2.65737C156.312 10.714 168.838 41.8535 170.118 76.3993C171 99.1198 170.118 121.852 170.432 144.597C170.432 152.472 168.307 155.48 160.008 155.855C117.104 157.848 117.14 158.077 117.14 114.291C117.14 102.2 117.647 90.0727 116.911 78.042C115.63 57.4354 104.82 46.4677 86.9791 46.4677C69.1505 46.4677 57.9292 57.0005 57.2769 77.9333C56.4797 104.978 56.6851 132.083 57.446 159.152C58.1587 173.719 62.5192 187.852 70.1048 200.221C96.5335 245.529 122.262 291.199 148.787 336.423C163.415 360.919 170.904 389.135 170.36 417.786C169.961 446.329 170.36 474.884 170.36 503.426C170.022 559.617 141.455 588.595 86.351 587.991C75.4316 587.991 64.5485 586.626 53.9552 583.92C25.5576 576.383 8.52633 557.709 3.35655 529.082C-2.63461 496.432 1.42391 463.445 0.457598 430.626C0.457598 425.867 2.13657 423.294 7.04062 423.439C7.98278 423.5 8.93701 423.5 9.87917 423.439C53.8828 420.552 53.8586 420.552 53.919 465.172C53.919 480.15 53.4962 495.212 54.5954 510.142C56.0449 529.976 67.6286 541.511 84.9498 542.26C101.619 542.985 114.881 532.85 115.836 512.884C117.792 473.374 120.015 433.658 114.157 394.232C112.309 381.731 106.148 370.57 99.9639 359.602C74.9605 315.671 50.0537 271.716 25.2315 227.724C10.157 201.199 1.95539 172.886 3.25991 142C4.33494 116.429 1.38768 90.737 5.19255 65.2263C10.5314 29.6659 26.6568 11.7166 61.4442 2.88687C63.3526 2.39163 65.0799 2.13797 65.7322 0H108.588V0Z" fill="#15AED5"/>
<path d="M1393.76 52.2776L1390.25 51.7582L1390.59 6.03942L1393.76 5.77368V52.2776Z" fill="white"/>
<path d="M1390.59 537.32L1393.76 537.114V583.558L1390.21 583.038C1390.37 567.795 1390.5 552.551 1390.59 537.32Z" fill="white"/>
<path d="M586.589 279.978C587.893 281.741 588.316 283.034 589.029 283.215C628.551 292.455 634.119 316.287 633.866 349.601C633.238 422.63 633.467 495.647 633.866 568.664C633.866 579.427 632.102 584.971 620.035 583.437C607.425 581.855 590.961 588.715 582.893 580.55C574.824 572.385 580.428 555.788 580.368 543.033C580.078 477.251 580.368 411.481 580.223 345.699C580.223 317.7 568.869 306.044 541.522 305.295C505.998 304.486 505.998 304.486 505.998 339.938C505.998 415.878 505.66 491.806 506.336 567.722C506.336 580.973 502.616 584.778 490.356 583.34C481.864 582.495 473.3 582.495 464.797 583.34C455.798 584.065 453.442 580.453 453.636 571.793C454.059 539.409 453.805 507.001 453.805 474.582C453.805 324.175 454.059 173.78 453.406 23.3727C453.406 8.12912 457.634 4.96443 471.525 5.65293C508.063 7.41646 544.856 2.99557 581.262 7.89962C615.107 12.4896 630.012 29.4364 630.641 64.0667C631.583 118.712 631.583 173.357 630.641 228.002C629.976 259.371 617.68 272.622 586.589 279.978ZM506.01 155.239V232.157C506.01 259.721 506.01 259.721 532.958 259.552C567.54 259.347 577.928 248.85 578.073 213.374C578.073 179.517 577.336 145.612 578.303 111.779C579.643 64.4774 573.531 49.4029 517.908 51.5408C508.655 51.9153 505.636 54.162 505.805 63.7768C506.348 94.2761 506.01 124.751 506.01 155.239Z" fill="#15AED5"/>
<path d="M234.234 294.75C234.234 202.854 234.403 110.981 233.98 19.1089C233.98 8.34659 236.444 4.96449 247.291 5.54428C280.931 7.33196 314.837 2.65741 348.368 8.2258C383.034 13.9995 399.788 30.1853 402.167 65.3471C406.661 130.936 406.661 196.766 402.167 262.367C399.522 300.729 378.009 318.993 337.714 321.88C325.442 322.918 313.109 323.112 300.801 322.459C289.845 321.735 287.224 325.721 287.285 336.399C287.707 413.293 287.285 490.176 287.768 567.07C287.768 579.222 285.751 585.14 272.403 583.292C260.312 581.625 244.356 588.426 236.746 580.586C229.137 572.735 234.451 556.682 234.415 544.241C234.125 461.089 234.234 377.914 234.234 294.75ZM287.417 163.694V250.711C287.417 278.673 287.417 278.673 315.549 276.692C341.108 274.82 351.243 263.961 351.291 237.991C351.291 188.697 351.291 139.391 351.291 90.0727C351.291 63.8131 339.937 52.326 313.786 51.9153C310.005 52.169 306.212 52.169 302.432 51.9153C290.872 50.2122 286.813 54.2586 287.152 66.7241C288.021 98.8903 287.417 131.31 287.417 163.694Z" fill="#15AED5"/>
<path d="M1390.59 537.295C1390.48 552.539 1390.36 567.771 1390.22 583.014C1348.89 583.014 1307.52 582.748 1266.17 583.364C1256.01 583.364 1253.6 580.309 1253.62 570.319C1253.89 386.236 1253.89 202.129 1253.62 18.0097C1253.62 9.1196 1255.13 5.39928 1264.98 5.54423C1306.79 6.20857 1348.65 5.94283 1390.48 6.03947L1390.14 51.7583C1365.88 51.7583 1341.67 52.1085 1317.42 51.7583C1309.48 51.7583 1306.72 54.1016 1306.75 62.4119C1307.04 124.232 1307.04 186.064 1306.75 247.884C1306.75 258.018 1310.72 259.915 1319.41 259.721C1338.41 259.226 1357.43 260.035 1376.42 259.371C1385.9 259.021 1388.26 262.258 1388.26 271.728C1388.26 305.38 1388.63 305.38 1354.98 305.38C1343.1 305.38 1331.18 306.044 1319.34 305.211C1308.98 304.462 1306.71 308.738 1306.77 318.485C1307.11 387.106 1307.11 455.702 1306.77 524.274C1306.77 534.143 1309.07 537.67 1319.28 537.38C1343 536.631 1366.83 537.211 1390.59 537.295Z" fill="#15AED5"/>
<path d="M934.437 317.99C934.437 401.685 934.208 485.392 934.715 569.087C934.715 580.635 931.587 584.56 920.522 583.292C908.371 581.903 892.523 588.401 884.781 580.719C877.026 573.037 882.341 556.875 882.341 544.47C882.172 385.318 882.22 226.19 882.486 67.0502C882.486 55.3577 880.154 50.4537 867.87 51.6374C856.552 53.0869 845.113 53.0869 833.795 51.6374C813.575 48.2553 827.406 31.6951 824.567 21.5367C823.009 15.763 819.711 5.66499 833.542 5.7737C883.488 6.26893 933.459 6.12399 983.429 5.7737C991.039 5.7737 992.827 8.37067 993.117 15.7267C994.482 51.9153 994.711 51.9153 959.042 51.9153C934.655 51.9153 934.655 51.9153 934.655 77.1965L934.437 317.99Z" fill="#82C341"/>
<path d="M1050.56 293.096C1050.56 202.202 1050.84 111.259 1050.29 20.4014C1050.29 8.02046 1053.72 4.17936 1065.36 5.67715C1077.45 7.23533 1093.75 0.362414 1100.74 8.56401C1106.71 15.6302 1102.81 31.6589 1102.81 43.605C1102.81 202.66 1103.04 361.752 1102.53 520.82C1102.53 534.384 1106.22 537.96 1119.05 537.271C1138.93 536.172 1159 537.271 1178.96 536.873C1185.38 536.873 1187.88 538.346 1188.3 545.533C1190.43 583.05 1190.69 583.05 1154.23 583.05C1124.27 583.05 1094.29 582.471 1064.33 583.34C1052.73 583.654 1050.29 579.729 1050.31 568.652C1050.82 476.84 1050.56 384.968 1050.56 293.096Z" fill="#15AED5"/>
<path d="M714.021 294.412C714.021 203.554 714.215 112.576 713.792 21.8025C713.792 10.0255 715.133 3.73241 728.782 5.70127C740.873 7.4648 756.865 0.760984 764.56 8.1533C772.254 15.5456 767 31.9971 767.036 44.4384C767.181 217.964 767.036 391.503 767.398 565.029C767.398 578.762 765.466 586.07 749.968 583.449C738.445 581.492 722.827 588.679 716.039 580.417C710.361 573.46 714.082 558.313 714.082 546.765C713.997 462.551 713.985 378.433 714.021 294.412Z" fill="#82C341"/>
</svg>
